HIERARCHY
ROOT root
{
	OFFSET 0.000000 0.000000 0.000000
	CHANNELS 6 Xposition Yposition Zposition Zrotation Yrotation Xrotation
	JOINT lhip
	{
		OFFSET 0.058581 -0.082280 -0.017664
		CHANNELS 3 Zrotation Yrotation Xrotation
		JOINT lknee
		{
			OFFSET 0.043451 -0.386469 0.008037
			CHANNELS 3 Zrotation Yrotation Xrotation
			JOINT lankle
			{
				OFFSET -0.014790 -0.426874 -0.037428
				CHANNELS 3 Zrotation Yrotation Xrotation
				JOINT ltoe
				{
					OFFSET 0.041054 -0.060286 0.122042
					CHANNELS 3 Zrotation Yrotation Xrotation
					End Site
					{
						OFFSET 0.000000 0.000000 0.000000
					}
				}
			}
		}
	}
	JOINT rhip
	{
		OFFSET -0.060310 -0.090513 -0.013543
		CHANNELS 3 Zrotation Yrotation Xrotation
		JOINT rknee
		{
			OFFSET -0.043257 -0.383688 -0.004843
			CHANNELS 3 Zrotation Yrotation Xrotation
			JOINT rankle
			{
				OFFSET 0.019056 -0.420046 -0.034562
				CHANNELS 3 Zrotation Yrotation Xrotation
				JOINT rtoe
				{
					OFFSET -0.034840 -0.062106 0.130323
					CHANNELS 3 Zrotation Yrotation Xrotation
					End Site
					{
						OFFSET 0.000000 0.000000 0.000000
					}
				}
			}
		}
	}
	JOINT lowerback
	{
		OFFSET 0.004439 0.124404 -0.038385
		CHANNELS 3 Zrotation Yrotation Xrotation
		JOINT upperback
		{
			OFFSET 0.004488 0.137956 0.026820
			CHANNELS 3 Zrotation Yrotation Xrotation
			JOINT chest
			{
				OFFSET -0.002265 0.056032 0.002855
				CHANNELS 3 Zrotation Yrotation Xrotation
				JOINT lowerneck
				{
					OFFSET -0.013390 0.211636 -0.033468
					CHANNELS 3 Zrotation Yrotation Xrotation
					JOINT upperneck
					{
						OFFSET 0.010113 0.088937 0.050410
						CHANNELS 3 Zrotation Yrotation Xrotation
						End Site
						{
							OFFSET 0.000000 0.000000 0.000000
						}
					}
				}
				JOINT lclavicle
				{
					OFFSET 0.071702 0.114000 -0.018898
					CHANNELS 3 Zrotation Yrotation Xrotation
					JOINT lshoulder
					{
						OFFSET 0.122921 0.045205 -0.019046
						CHANNELS 3 Zrotation Yrotation Xrotation
						JOINT lelbow
						{
							OFFSET 0.255332 -0.015649 -0.022946
							CHANNELS 3 Zrotation Yrotation Xrotation
							JOINT lwrist
							{
								OFFSET 0.265709 0.012698 -0.007375
								CHANNELS 3 Zrotation Yrotation Xrotation
								End Site
								{
									OFFSET 0.000000 0.000000 0.000000
								}
							}
						}
					}
				}
				JOINT rclavicle
				{
					OFFSET -0.082954 0.112472 -0.023707
					CHANNELS 3 Zrotation Yrotation Xrotation
					JOINT rshoulder
					{
						OFFSET -0.113228 0.046853 -0.008472
						CHANNELS 3 Zrotation Yrotation Xrotation
						JOINT relbow
						{
							OFFSET -0.260127 -0.014369 -0.031269
							CHANNELS 3 Zrotation Yrotation Xrotation
							JOINT rwrist
							{
								OFFSET -0.269108 0.006794 -0.006027
								CHANNELS 3 Zrotation Yrotation Xrotation
								End Site
								{
									OFFSET 0.000000 0.000000 0.000000
								}
							}
						}
					}
				}
			}
		}
	}
}
MOTION
Frames: 13
Frame Time: 0.033333
-1.874562 0.471783 0.935278 90.631419 -3.470209 81.465777 4.892893 4.258323 -14.935843 -11.730402 0.728423 74.745913 -2.172541 -0.297796 9.031109 0.000000 -0.000000 0.000000 -0.574391 3.281074 -22.974534 6.624394 2.862181 63.071268 -3.657700 -0.190771 -14.936559 0.000000 -0.000000 0.000000 0.276930 -1.365801 23.032324 5.320208 -0.892651 3.269797 0.127156 -0.749709 4.208375 -0.981314 5.330283 0.483057 -4.632799 1.111216 21.018509 -26.851129 3.981618 -0.021478 -50.141386 3.303469 7.288060 -2.812936 -43.372298 10.500448 6.981741 -9.305872 -10.387376 29.178489 1.072932 1.032552 47.553723 3.331329 10.031918 -22.573544 54.499000 -10.237966 3.530362 10.491478 -1.827868 
-1.863905 0.472910 0.940105 90.959376 -3.557478 81.317228 5.133647 3.579440 -17.089214 -11.153503 1.266293 75.266033 -1.911158 0.108317 10.186010 0.000000 -0.000000 0.000000 -0.464739 2.782859 -21.335110 6.892189 3.590998 61.995388 -3.527390 -0.953866 -13.853124 0.000000 -0.000000 0.000000 0.495228 -1.160000 23.117939 5.571627 -1.258611 3.241749 0.081170 -0.713145 4.395484 -1.483809 4.846466 0.121943 -4.416433 1.480683 20.710327 -27.097438 4.399896 0.017469 -50.248108 3.347791 6.903305 -2.495523 -43.030334 10.325566 6.447860 -9.182761 -10.833456 29.143341 0.391296 0.770518 47.271711 3.421715 10.529463 -24.326928 57.589247 -10.519691 4.832390 10.965419 -2.043234 
-1.854626 0.473931 0.945809 91.041700 -3.938703 81.348747 5.381906 2.972111 -19.730712 -10.403136 2.133852 75.774869 -1.960015 0.125945 9.676904 0.000000 -0.000000 0.000000 -0.618086 2.904467 -20.011987 6.712668 4.277543 60.827300 -3.378965 -1.139361 -13.464499 0.000000 -0.000000 0.000000 0.311397 -0.487712 23.225737 5.607019 -1.574612 3.563095 0.188888 -0.645442 4.087818 -1.639120 4.416541 -0.156563 -4.264145 1.539958 20.299777 -27.213467 4.628184 -0.588355 -50.199821 4.179692 6.693489 -2.505241 -43.330747 10.091962 6.048049 -9.091421 -10.396720 28.984866 0.186374 0.337763 47.344165 2.720709 11.096286 -27.039403 60.987239 -12.980132 5.793171 10.432628 -1.566027 
-1.844132 0.476393 0.954624 91.189092 -4.313559 81.545780 5.590082 2.679826 -23.345140 -9.827977 2.665813 75.831199 -1.725984 -0.104586 7.394817 0.000000 -0.000000 0.000000 -0.810831 2.659379 -18.553478 6.385143 5.246437 59.130474 -2.763297 -0.994181 -12.702391 0.000000 -0.000000 0.000000 0.270586 0.197324 23.155716 5.539288 -1.884066 3.315928 0.119895 -0.635157 4.579647 -1.717080 4.343101 -0.722933 -3.973576 1.139454 20.375882 -27.121764 4.821078 -0.387067 -50.393267 4.336123 6.431026 -2.234466 -44.021888 9.469214 6.372212 -9.025957 -10.556781 28.730178 -0.133956 -0.162105 47.504730 2.805321 11.611898 -28.676688 63.666452 -14.021184 4.780790 10.758439 -2.226174 
-1.838167 0.478061 0.960515 91.203100 -4.804066 81.823927 5.502000 2.427694 -25.389388 -9.354019 3.050090 74.912718 -1.377273 -0.027409 6.561633 0.000000 -0.000000 0.000000 -1.186085 2.620335 -17.827714 6.036980 5.821689 57.923441 -1.951094 -0.851137 -12.105407 0.000000 -0.000000 0.000000 -0.091967 0.744605 23.173933 5.404835 -1.987951 2.886609 -0.022231 -0.329460 4.842646 -1.265105 4.574008 -0.675124 -3.793225 0.666569 20.090178 -26.827714 5.050656 -0.313711 -50.372235 4.032286 6.627655 -2.289885 -43.736960 9.753941 6.843188 -9.673564 -11.214134 29.053266 -0.369557 -0.182446 47.440988 2.978873 11.984516 -30.317689 64.474855 -15.427884 3.883662 11.708373 -3.162715 
-1.829540 0.480586 0.969832 91.266600 -5.049167 81.804228 5.659052 2.403302 -27.441112 -9.291361 2.963157 73.146978 -1.621457 -0.477424 5.304586 0.000000 -0.000000 0.000000 -1.344546 2.014314 -15.903290 5.675345 6.823052 55.561333 -1.819931 -0.214148 -11.324219 0.000000 -0.000000 0.000000 -0.133283 1.439029 23.227044 5.275291 -2.232674 3.130159 0.081328 -0.079942 4.843011 -1.631790 4.246407 -0.838081 -3.446687 0.345087 19.853374 -27.037401 5.033650 -0.807365 -50.203378 4.263990 6.609331 -2.701199 -43.976024 10.126581 6.797455 -9.482893 -10.937878 28.946752 -0.820765 -0.075988 47.439855 3.495190 11.453575 -30.843067 65.903848 -16.033337 3.148829 12.170680 -3.223248 
-1.821777 0.484233 0.979152 91.172949 -5.301035 82.260737 5.828204 2.342794 -29.495959 -9.202682 3.105940 70.335676 -1.392378 -0.764178 5.469483 0.000000 -0.000000 0.000000 -1.661403 1.585534 -14.813780 5.492048 7.762465 53.509094 -0.753892 -0.708583 -11.052257 0.000000 -0.000000 0.000000 -0.106569 1.969144 23.466553 4.976908 -2.035060 2.319055 0.071382 -0.117773 5.136588 -2.017190 4.051108 -1.454387 -3.397281 0.366057 20.160545 -26.970807 5.567419 -0.984962 -50.174660 4.372251 6.554265 -3.357595 -44.381474 11.059949 6.854089 -9.850153 -11.157215 28.633407 -0.686147 -0.545875 47.706048 3.131513 12.068641 -33.077225 66.877435 -18.457352 4.419666 11.357664 -3.264364 
-1.813773 0.488382 0.988429 91.154671 -5.477482 82.654611 6.064617 2.111673 -30.856033 -9.512515 3.119185 66.540369 -1.124581 -1.203449 5.694456 0.000000 -0.000000 0.000000 -2.395013 1.185624 -13.430112 5.224965 7.930309 50.997380 0.097170 0.160095 -10.232776 0.000000 -0.000000 0.000000 -0.273722 2.542580 22.847764 4.921535 -2.178853 2.731048 0.009039 0.193052 5.273636 -1.778598 4.352812 -1.317978 -3.777027 -0.227654 19.903977 -26.755313 5.563428 -0.930744 -50.745788 4.066706 6.973038 -2.495051 -44.191651 10.495909 6.822225 -10.155090 -11.532101 28.445136 -0.365987 -0.201755 47.605692 3.890126 12.408961 -34.368638 66.645859 -19.396032 3.767068 12.074352 -4.000855 
-1.804648 0.492807 0.998253 91.108012 -5.451540 83.331307 5.976100 2.152856 -32.048579 -9.669248 2.185203 61.985134 -1.724832 -1.743592 6.800283 0.000000 -0.000000 0.000000 -2.840282 0.000067 -12.133425 5.152206 8.851532 48.131948 0.300413 0.871357 -9.186651 0.000000 -0.000000 0.000000 -0.063643 2.930747 22.609599 4.618412 -2.194642 2.632367 0.002134 0.572843 5.058841 -2.198050 4.375280 -1.574722 -3.604860 0.041306 20.265674 -27.041207 5.961744 -1.762837 -50.418055 4.622730 7.379690 -3.222781 -44.608739 11.268203 6.969826 -9.888194 -11.792719 28.383581 -0.535086 -0.447852 47.341760 3.622460 12.420905 -35.080503 67.561358 -20.548925 3.620034 11.647489 -3.719707 
-1.791939 0.499035 1.009302 90.985246 -5.330750 84.034457 6.174791 2.358124 -32.511321 -9.853729 1.274328 55.192942 -3.022195 -2.009501 8.609054 0.000000 -0.000000 0.000000 -3.579714 -0.856806 -10.175851 5.017950 9.318924 44.359157 0.918006 1.822508 -7.735435 0.000000 -0.000000 0.000000 -0.009409 3.647121 21.634426 4.499921 -2.224560 2.853645 0.082923 0.636907 5.197528 -2.491012 4.411176 -1.688617 -3.490560 -0.335403 20.354150 -26.900971 5.932365 -1.091351 -51.074955 4.608379 7.171981 -2.794661 -44.558506 10.820191 6.737552 -9.985887 -11.658424 28.172675 -0.792628 -0.162242 47.169393 3.914102 11.695354 -34.788788 68.462662 -20.042985 5.234642 12.074767 -3.780728 
-1.781395 0.504379 1.017259 90.557414 -5.263699 84.853466 6.379614 2.394536 -32.205531 -10.462879 0.257170 48.691844 -4.134274 -2.614345 11.598388 0.000000 -0.000000 0.000000 -4.242052 -1.422388 -9.172541 5.106212 9.852602 41.759699 1.467894 2.654626 -6.676747 0.000000 -0.000000 0.000000 -0.152263 3.985487 20.537010 4.342158 -2.124391 3.364930 -0.024493 0.897736 5.125123 -2.506966 4.882084 -2.225239 -3.531155 -0.877601 20.783128 -27.048499 6.449209 -1.710714 -50.758553 4.883222 7.919401 -3.250701 -44.417112 11.257755 6.570321 -10.183812 -11.837262 28.376691 -0.981354 -0.188571 46.760873 4.391169 12.117725 -34.986305 68.533435 -20.655781 4.796342 11.533795 -4.682648 
-1.769871 0.510370 1.024602 90.255017 -5.057533 85.486829 6.518267 2.417824 -31.255232 -10.715101 -1.116919 42.143124 -5.658610 -3.101819 13.658568 0.000000 -0.000000 0.000000 -4.829247 -2.106327 -8.015554 5.173727 10.197804 39.368445 2.088988 3.446254 -5.556671 0.000000 -0.000000 0.000000 -0.179199 4.468507 19.762071 4.214164 -2.118937 3.808904 0.001226 0.939480 4.686509 -2.472147 4.992864 -1.955217 -3.550099 -1.060221 20.330475 -27.248927 6.636331 -1.574443 -50.686819 5.173072 8.065376 -3.198595 -44.154762 10.937618 6.667336 -10.254526 -11.392987 28.516632 -1.024878 -0.234674 46.349644 4.037936 12.180688 -35.662558 69.047201 -21.577688 4.600982 12.357979 -4.383771 
-1.758005 0.516316 1.029996 89.585006 -4.760951 86.580505 6.824547 2.456010 -30.570076 -10.724938 -2.534912 36.046494 -6.729441 -3.164627 15.543188 0.000000 -0.000000 0.000000 -5.318414 -2.627543 -7.620090 5.457047 10.889369 37.455792 2.744683 4.294636 -4.413485 0.000000 -0.000000 0.000000 -0.289861 4.573113 18.867474 3.966110 -1.931847 3.335668 -0.043552 0.972914 4.926802 -2.451245 5.522871 -2.008531 -3.533867 -0.660560 20.268311 -27.055745 7.501627 -2.041127 -50.688613 5.583611 8.396259 -4.016398 -43.574421 12.023929 6.727411 -10.202707 -11.598039 28.218846 -1.755519 -0.556690 46.637368 4.651010 12.480733 -33.707989 69.605332 -19.792586 5.434536 11.896369 -4.781948 
